<svg width="53" height="57" viewBox="0 0 53 57" fill="none" xmlns="http://www.w3.org/2000/svg">
<path d="M48.0807 28.7077C49.6883 30.2454 49.7325 32.7992 48.179 34.3915L33.7326 49.1991C32.2289 50.7404 29.7556 50.7556 28.233 49.233L28 49C26.6193 47.6193 26.6193 45.3807 28 44V44L38 32V32C38.2761 31.7239 38.2761 31.2761 38 31V31L37 30L34 27L27.2733 20.946C25.5187 19.3668 25.5061 16.6194 27.2463 15.0242L27.4091 14.875C28.8909 13.5166 31.1508 13.4691 32.6885 14.764L39.5 20.5L48.0807 28.7077Z" fill="#562DD7"/>
<path d="M42.0608 39.1495C42.5787 38.8258 43.1347 39.5045 42.7153 39.9485L37 46L33.75 49.25C32.2312 50.7688 29.7688 50.7688 28.25 49.25L28 49C26.6193 47.6193 26.6193 45.3807 28 44V44L37.6276 32.4469C37.8276 32.2069 38.1904 32.1904 38.4113 32.4113V32.4113C38.4696 32.4696 38.5136 32.5407 38.5397 32.619L38.8306 33.4918C38.943 33.8291 39.0999 34.1499 39.2971 34.4457L40 35.5L40.3729 36.2457C40.4575 36.415 40.53 36.5901 40.5899 36.7697L41 38L41.2909 38.8726C41.3974 39.1923 41.775 39.3281 42.0608 39.1495V39.1495Z" fill="#5096E8"/>
<circle cx="49.5" cy="18" r="3.5" fill="#C49BF9"/>
<path d="M33.6642 29.5179C35.443 31.1081 35.443 33.8919 33.6642 35.4821L20.4159 47.3255C17.8388 49.6294 13.75 47.8002 13.75 44.3434L13.75 20.6566C13.75 17.1998 17.8388 15.3706 20.4159 17.6744L33.6642 29.5179Z" fill="#9BF9F9"/>
<path d="M33.5496 29.4692C35.3733 31.0712 35.3614 33.9151 33.5243 35.5018L29.548 38.9358C27.686 40.5439 24.8274 40.1058 23.5324 38.014L14.134 22.8318C11.7139 18.9225 16.7204 14.6869 20.1748 17.7211L33.5496 29.4692Z" fill="#6BD2F1"/>
<path d="M36.5695 33.839L37.3195 32.839L38.0695 31.839L44.6604 38.1597L42.25 40.25L41.75 40.75L36.5695 33.839Z" fill="#5096E8"/>
</svg>
